# xmcd
#
# Track frame offsets:
# 150
# 15156
# 32959
# 50871
# 66321
# 79768
# 96263
# 114715
# 131520
# 147335
# 164251
# 182616
#
# Disc length: 2671 seconds
#
#
# Revision: 0
# Processed by: cddbd v1.5.1PL0 Copyright (c) Steve Scherf et al.
# Submitted via: FreeRIP 2.92 
#
DISCID=a50a6d0c
DTITLE=LeAnn Rimes-This Woman - 
DYEAR=2005
DGENRE=Country
TTITLE0=Want To With You
TTITLE1=You Take Me Home
TTITLE2=Something's Gotta Give
TTITLE3=Won't Be Lonely Long
TTITLE4=Nothin' 'Bout Love Makes Sense
TTITLE5=Probably Wouldn't Be This Way
TTITLE6=The Weight Of Love
TTITLE7=With You
TTITLE8=I Got It Bad
TTITLE9=I Dare You
TTITLE10=When This Woman Loves A Man
TTITLE11=Some People
EXTD=
EXTT0=
EXTT1=
EXTT2=
EXTT3=
EXTT4=
EXTT5=
EXTT6=
EXTT7=
EXTT8=
EXTT9=
EXTT10=
EXTT11=
PLAYORDER=
